Coordinates
version=1
nRows=17
nColumns=24
inDegrees=yes

Units are S.I. units (second, meters, Newtons, ...)
Angles are in degrees.

endheader
time	pelvis_tilt	pelvis_list	pelvis_rotation	pelvis_tx	pelvis_ty	pelvis_tz	hip_flexion_r	hip_adduction_r	hip_rotation_r	knee_angle_r	ankle_angle_r	subtalar_angle_r	mtp_angle_r	hip_flexion_l	hip_adduction_l	hip_rotation_l	knee_angle_l	ankle_angle_l	subtalar_angle_l	mtp_angle_l	lumbar_extension	lumbar_bending	lumbar_rotation
      0.88300000	     -2.28520480	     -2.37272369	     -1.32054292	     -0.23903928	      1.05191708	      0.34206379	     -4.53367760	      7.74484792	      2.95684419	    -13.60518710	     11.95357979	    -11.98726985	      2.16740576	     24.20903927	     -1.13351022	     -3.45948516	     -1.60940923	      1.31537718	     -1.95334178	      3.54097922	      3.32109809	      6.57485822	      2.66637896
      0.88716667	     -2.23730581	     -2.36105714	     -1.27828667	     -0.23297898	      1.05136652	      0.34180160	     -4.70441385	      7.71262465	      2.72365573	    -14.09034082	     12.08948823	    -11.74146381	      2.14514323	     24.07544581	     -1.03684438	     -3.60232768	     -1.56466612	      1.34162589	     -1.43597940	      3.39861909	      3.37848589	      6.60502604	      2.70281947
      0.89133333	     -2.25122908	     -2.37843029	     -1.34118592	     -0.22706954	      1.05074967	      0.34168838	     -4.77403466	      7.70460238	      2.68716269	    -14.63566756	     12.06730797	    -11.73263849	      2.14305178	     23.98447952	     -1.02114551	     -3.54955419	     -1.55151106	      1.34191792	     -1.34800832	      3.38327616	      3.40902195	      6.60333473	      2.70232798
      0.89550000	     -2.24804834	     -2.38211074	     -1.39825553	     -0.22108246	      1.05018876	      0.34154665	     -4.84152191	      7.67432383	      2.57935784	    -15.22695186	     12.04870858	    -11.68321164	      2.14229450	     23.87079501	     -0.98596983	     -3.51126188	     -1.60410896	      1.32306607	     -1.21794850	      3.36666058	      3.45012076	      6.60770365	      2.70727570
      0.89966667	     -2.18226542	     -2.36988235	     -1.30358899	     -0.21497966	      1.04970397	      0.34115531	     -4.96953823	      7.62680927	      2.19955531	    -15.82969037	     12.14343403	    -11.05606212	      2.14844739	     23.73190752	     -0.86393352	     -3.56054064	     -1.77633636	      1.26328454	     -0.57310459	      3.26779419	      3.41067691	      6.61499397	      2.76312058
      0.90383333	     -2.16488999	     -2.36330368	     -1.38846720	     -0.20896721	      1.04922253	      0.34107458	     -5.01550642	      7.57731020	      2.14702547	    -16.49912323	     12.10955322	    -11.03458346	      2.14959383	     23.58793553	     -0.83366697	     -3.48672679	     -1.92757314	      1.24844910	     -0.49269768	      3.25787850	      3.46262995	      6.60141206	      2.76656315
      0.90800000	     -2.10643181	     -2.33717014	     -1.35928594	     -0.20284371	      1.04880460	      0.34074474	     -5.08167304	      7.49669943	      1.81044743	    -17.20728069	     12.07565099	    -10.49404715	      2.16909251	     23.42695124	     -0.72237770	     -3.48464800	     -2.16489624	      1.13589241	     -0.11613947	      3.19217676	      3.40328269	      6.58317886	      2.81352849
      0.91216667	     -2.07519269	     -2.31513153	     -1.44435538	     -0.19678174	      1.04839770	      0.34067762	     -5.09416630	      7.42094187	      1.72348650	    -17.97535205	     12.02125972	    -10.45658315	      2.17295744	     23.25546110	     -0.67721256	     -3.39146321	     -2.38632957	      1.09257860	     -0.03780402	      3.18487404	      3.46344220	      6.55873847	      2.82116029
      0.91633333	     -2.03197949	     -2.26904079	     -1.40644369	     -0.19059549	      1.04801593	      0.34027966	     -5.09171518	      7.30198391	      1.32839304	    -18.78121562	     11.87468925	     -9.84387807	      2.20930927	     23.09190293	     -0.53757032	     -3.32029876	     -2.66592971	      0.84395838	      0.20296062	      3.14222382	      3.42231280	      6.51301050	      2.87723883
      0.92050000	     -2.00427297	     -2.19433989	     -1.48996840	     -0.18438845	      1.04769233	      0.34008335	     -5.04521674	      7.14148353	      1.11993498	    -19.65838437	     11.77948330	     -9.65691000	      2.22845720	     22.89311348	     -0.42010759	     -3.22311960	     -2.90492077	      0.73536740	      0.27825325	      3.12873050	      3.41296310	      6.48843817	      2.89049236
      0.92466667	     -1.96223247	     -2.13359065	     -1.51155923	     -0.17823023	      1.04738571	      0.33979819	     -4.97490480	      6.99513228	      0.80258703	    -20.59401236	     11.57518347	     -9.31175837	      2.25734057	     22.70223700	     -0.29196540	     -3.13491704	     -3.19163522	      0.51859210	      0.33595595	      3.11583764	      3.38948192	      6.42183853	      2.92165953
      0.92883333	     -1.86712636	     -2.09611772	     -1.46517241	     -0.17212701	      1.04716417	      0.33944853	     -4.94139003	      6.87437653	      0.46295123	    -21.54612467	     11.29118349	     -8.58035090	      2.33231609	     22.46237433	     -0.16732662	     -2.93619436	     -3.49299018	      0.12442064	      0.25309611	      3.09705895	      3.41602042	      6.33561841	      2.98509535
      0.93300000	     -1.81359943	     -2.01344780	     -1.48056566	     -0.16598499	      1.04693931	      0.33908119	     -4.81555551	      6.68207052	      0.11609902	    -22.60115612	     11.05849856	     -8.09273293	      2.41659390	     22.24012265	     -0.00778572	     -2.76432965	     -3.77369690	     -0.18524464	      0.03984550	      3.08855017	      3.37955770	      6.23825942	      3.02350458
      0.93716667	     -1.75307379	     -1.91702807	     -1.49634765	     -0.15982333	      1.04677611	      0.33870990	     -4.66552497	      6.46675237	     -0.22238917	    -23.70581171	     10.71168994	     -7.61801192	      2.51446897	     21.99602297	      0.16466224	     -2.55595923	     -4.03706281	     -0.54586905	     -0.21204991	      3.08792232	      3.37102004	      6.14602077	      3.05498815
      0.94133333	     -1.69817555	     -1.81372237	     -1.50811215	     -0.15368548	      1.04663244	      0.33833540	     -4.46977970	      6.23884713	     -0.56525263	    -24.87687814	     10.31239417	     -7.16191222	      2.62827615	     21.75697773	      0.34486016	     -2.34058065	     -4.30373501	     -0.92163322	     -0.53877950	      3.09490590	      3.35815057	      6.02680120	      3.08243004
      0.94550000	     -1.64959239	     -1.69268249	     -1.52031511	     -0.14756069	      1.04652195	      0.33793100	     -4.22688851	      5.97930208	     -0.91881579	    -26.11306022	      9.85069228	     -6.71776141	      2.75601871	     21.52049760	      0.54419533	     -2.11008198	     -4.56782512	     -1.30717220	     -0.90962463	      3.10856562	      3.34930513	      5.89539033	      3.10343897
      0.94966667	     -1.57716838	     -1.53469785	     -1.55709340	     -0.14137169	      1.04651344	      0.33742862	     -3.97424682	      5.65405189	     -1.26372007	    -27.41173256	      9.34752227	     -6.19669083	      2.98801659	     21.22006381	      0.78514449	     -1.75689901	     -4.76328574	     -1.79003757	     -1.58066326	      3.14224714	      3.43163235	      5.84911075	      3.10531069
